<svg xmlns="http://www.w3.org/2000/svg" xmlns:xlink="http://www.w3.org/1999/xlink" width="500" zoomAndPan="magnify" viewBox="0 0 375 374.999991" height="500" preserveAspectRatio="xMidYMid meet" version="1.0"><defs><clipPath id="8fbc758088"><path d="M 37.5 22.359375 L 341.25 22.359375 L 341.25 352.359375 L 37.5 352.359375 Z M 37.5 22.359375 " clip-rule="nonzero"/></clipPath><clipPath id="a60942ce26"><path d="M 185 146 L 341.25 146 L 341.25 230 L 185 230 Z M 185 146 " clip-rule="nonzero"/></clipPath><clipPath id="68c9340b7f"><path d="M 289 146 L 341.25 146 L 341.25 312 L 289 312 Z M 289 146 " clip-rule="nonzero"/></clipPath></defs><g clip-path="url(#8fbc758088)"><path fill="#000000" d="M 112.398438 187.359375 C 112.398438 126.703125 154.863281 85.28125 217.007812 85.28125 C 240.472656 85.28125 261.121094 91.257812 279.5625 103.898438 L 341.226562 71.0625 C 310.257812 39.191406 266.007812 22.359375 213.359375 22.359375 C 111.503906 22.359375 37.523438 91.191406 37.523438 187.359375 C 37.523438 283.53125 111.503906 352.359375 213.359375 352.359375 C 251.96875 352.359375 286.035156 343.292969 313.628906 325.984375 L 279.496094 270.824219 C 261.050781 283.460938 240.472656 289.4375 216.9375 289.4375 C 154.863281 289.4375 112.398438 248.015625 112.398438 187.359375 Z M 112.398438 187.359375 " fill-opacity="1" fill-rule="evenodd"/></g><g clip-path="url(#a60942ce26)"><path fill="#00d9d2" d="M 289.75 228.644531 L 341.226562 146.351562 L 185.96875 229.058594 L 273.644531 228.714844 Z M 289.75 228.644531 " fill-opacity="1" fill-rule="evenodd"/></g><g clip-path="url(#68c9340b7f)"><path fill="#008c87" d="M 341.226562 146.351562 L 289.75 228.644531 L 341.226562 311.832031 Z M 341.226562 146.351562 " fill-opacity="1" fill-rule="evenodd"/></g></svg>